# xmcd
#
# Track frame offsets:
#	150
#	15031
#	33513
#	52302
#	74745
#	88579
#	102690
#	124722
#	149628
#	167475
#	182753
#	198793
#	218229
#	235343
#	252865
#	270635
#	285663
#	305020
#
# Disc length: 4347 seconds
#
# Revision: 0
# Processed by: cddbd v1.5.1PL0 Copyright (c) Steve Scherf et al.
# Submitted via: audiograbber 1.83.01
#
DISCID=1010f912
DTITLE=Kaiti Garbi - Apla ta Pragmata
DYEAR=1900
DGENRE=
TTITLE0=APLA TA PRAGMATA
TTITLE1=OTAN SE HREIAZWMAI
TTITLE2=KRAGION
TTITLE3=BIASTIKA
TTITLE4=ESY THA HASEIS
TTITLE5=SAN TON EXTHRO
TTITLE6=PESTO M' ENA FILI
TTITLE7=ADIKO KAI KRIMA
TTITLE8=KANENAS DEN ANHKEI SE KANENA
TTITLE9=AKATALLHLH AGAPH
TTITLE10=THELW APOPSE NA XOREPSW
TTITLE11=AYTO POY ZHSAME
TTITLE12=TO SABBATOKYRIAKO SOY
TTITLE13=POY NA KRYFTW
TTITLE14=XENYHTAW
TTITLE15=BASEI LOGIKIS
TTITLE16=ARGA_ARGA
TTITLE17=YOU AND ME YOU AND I
EXTD=
EXTT0=
EXTT1=
EXTT2=
EXTT3=
EXTT4=
EXTT5=
EXTT6=
EXTT7=
EXTT8=
EXTT9=
EXTT10=
EXTT11=
EXTT12=
EXTT13=
EXTT14=
EXTT15=
EXTT16=
EXTT17=
PLAYORDER=
